<svg xmlns="http://www.w3.org/2000/svg" xmlns:xlink="http://www.w3.org/1999/xlink" width="300" zoomAndPan="magnify" viewBox="0 0 224.87999 67.499998" height="90" preserveAspectRatio="xMidYMid meet" version="1.0"><defs><g/></defs><g fill="#000000" fill-opacity="1"><g transform="translate(2.7879, 44.678948)"><g><path d="M 15.46875 0 L 10.515625 0 L -0.828125 -21.15625 L 7.59375 -21.15625 L 12.75 -9.734375 L 17.8125 -21.15625 L 22.859375 -21.15625 L 27.921875 -9.734375 L 33.078125 -21.15625 L 41.5 -21.15625 L 30.15625 0 L 25.203125 0 L 20.34375 -10.9375 Z M 15.46875 0 "/></g></g></g><g fill="#000000" fill-opacity="1"><g transform="translate(39.576372, 44.678948)"><g><path d="M 3.921875 -2.609375 C 1.941406 -4.773438 0.953125 -7.425781 0.953125 -10.5625 C 0.953125 -13.695312 1.941406 -16.347656 3.921875 -18.515625 C 5.898438 -20.691406 8.414062 -21.78125 11.46875 -21.78125 C 14.269531 -21.78125 16.578125 -20.898438 18.390625 -19.140625 L 18.390625 -21.15625 L 25.703125 -21.15625 L 25.703125 0 L 18.484375 0 L 18.484375 -2.390625 L 18.390625 -2.390625 C 16.578125 -0.378906 14.269531 0.625 11.46875 0.625 C 8.414062 0.625 5.898438 -0.453125 3.921875 -2.609375 Z M 10.125 -14.140625 C 9.175781 -13.210938 8.703125 -12.019531 8.703125 -10.5625 C 8.703125 -9.101562 9.15625 -7.910156 10.0625 -6.984375 C 10.96875 -6.066406 12.164062 -5.609375 13.65625 -5.609375 C 15.082031 -5.609375 16.253906 -6.078125 17.171875 -7.015625 C 18.097656 -7.953125 18.5625 -9.132812 18.5625 -10.5625 C 18.5625 -12.019531 18.085938 -13.210938 17.140625 -14.140625 C 16.191406 -15.078125 15.03125 -15.546875 13.65625 -15.546875 C 12.25 -15.546875 11.070312 -15.078125 10.125 -14.140625 Z M 10.125 -14.140625 "/></g></g></g><g fill="#000000" fill-opacity="1"><g transform="translate(63.86793, 44.678948)"><g><path d="M 7.84375 -21.15625 L 13 -9.65625 L 18.15625 -21.15625 L 26.8125 -21.15625 L 15.46875 0 L 10.515625 0 L -0.828125 -21.15625 Z M 7.84375 -21.15625 "/></g></g></g><g fill="#000000" fill-opacity="1"><g transform="translate(85.973558, 44.678948)"><g><path d="M 23.890625 -9.5625 L 8.53125 -9.5625 C 8.53125 -8.082031 9.007812 -6.984375 9.96875 -6.265625 C 10.9375 -5.554688 11.988281 -5.203125 13.125 -5.203125 C 14.300781 -5.203125 15.234375 -5.359375 15.921875 -5.671875 C 16.609375 -5.984375 17.394531 -6.609375 18.28125 -7.546875 L 23.546875 -4.90625 C 21.347656 -1.21875 17.691406 0.625 12.578125 0.625 C 9.390625 0.625 6.65625 -0.46875 4.375 -2.65625 C 2.09375 -4.84375 0.953125 -7.476562 0.953125 -10.5625 C 0.953125 -13.644531 2.09375 -16.285156 4.375 -18.484375 C 6.65625 -20.679688 9.390625 -21.78125 12.578125 -21.78125 C 15.929688 -21.78125 18.660156 -20.8125 20.765625 -18.875 C 22.867188 -16.9375 23.921875 -14.164062 23.921875 -10.5625 C 23.921875 -10.0625 23.910156 -9.726562 23.890625 -9.5625 Z M 8.75 -13.609375 L 16.78125 -13.609375 C 16.625 -14.710938 16.191406 -15.554688 15.484375 -16.140625 C 14.785156 -16.734375 13.882812 -17.03125 12.78125 -17.03125 C 11.570312 -17.03125 10.609375 -16.710938 9.890625 -16.078125 C 9.179688 -15.453125 8.800781 -14.628906 8.75 -13.609375 Z M 8.75 -13.609375 "/></g></g></g><g fill="#000000" fill-opacity="1"><g transform="translate(106.965601, 44.678948)"><g><path d="M 15.46875 0 L 10.515625 0 L -0.828125 -21.15625 L 7.59375 -21.15625 L 12.75 -9.734375 L 17.8125 -21.15625 L 22.859375 -21.15625 L 27.921875 -9.734375 L 33.078125 -21.15625 L 41.5 -21.15625 L 30.15625 0 L 25.203125 0 L 20.34375 -10.9375 Z M 15.46875 0 "/></g></g></g><g fill="#000000" fill-opacity="1"><g transform="translate(143.754078, 44.678948)"><g><path d="M 3.921875 -2.609375 C 1.941406 -4.773438 0.953125 -7.425781 0.953125 -10.5625 C 0.953125 -13.695312 1.941406 -16.347656 3.921875 -18.515625 C 5.898438 -20.691406 8.414062 -21.78125 11.46875 -21.78125 C 14.269531 -21.78125 16.578125 -20.898438 18.390625 -19.140625 L 18.390625 -21.15625 L 25.703125 -21.15625 L 25.703125 0 L 18.484375 0 L 18.484375 -2.390625 L 18.390625 -2.390625 C 16.578125 -0.378906 14.269531 0.625 11.46875 0.625 C 8.414062 0.625 5.898438 -0.453125 3.921875 -2.609375 Z M 10.125 -14.140625 C 9.175781 -13.210938 8.703125 -12.019531 8.703125 -10.5625 C 8.703125 -9.101562 9.15625 -7.910156 10.0625 -6.984375 C 10.96875 -6.066406 12.164062 -5.609375 13.65625 -5.609375 C 15.082031 -5.609375 16.253906 -6.078125 17.171875 -7.015625 C 18.097656 -7.953125 18.5625 -9.132812 18.5625 -10.5625 C 18.5625 -12.019531 18.085938 -13.210938 17.140625 -14.140625 C 16.191406 -15.078125 15.03125 -15.546875 13.65625 -15.546875 C 12.25 -15.546875 11.070312 -15.078125 10.125 -14.140625 Z M 10.125 -14.140625 "/></g></g></g><g fill="#000000" fill-opacity="1"><g transform="translate(168.045631, 44.678948)"><g><path d="M 2.46875 0 L 2.46875 -35.46875 L 9.78125 -35.46875 L 9.78125 0 Z M 2.46875 0 "/></g></g></g><g fill="#000000" fill-opacity="1"><g transform="translate(176.417015, 44.678948)"><g><path d="M 2.46875 0 L 2.46875 -35.46875 L 9.78125 -35.46875 L 9.78125 0 Z M 2.46875 0 "/></g></g></g><g fill="#000000" fill-opacity="1"><g transform="translate(184.7884, 44.678948)"><g><path d="M 23.890625 -9.5625 L 8.53125 -9.5625 C 8.53125 -8.082031 9.007812 -6.984375 9.96875 -6.265625 C 10.9375 -5.554688 11.988281 -5.203125 13.125 -5.203125 C 14.300781 -5.203125 15.234375 -5.359375 15.921875 -5.671875 C 16.609375 -5.984375 17.394531 -6.609375 18.28125 -7.546875 L 23.546875 -4.90625 C 21.347656 -1.21875 17.691406 0.625 12.578125 0.625 C 9.390625 0.625 6.65625 -0.46875 4.375 -2.65625 C 2.09375 -4.84375 0.953125 -7.476562 0.953125 -10.5625 C 0.953125 -13.644531 2.09375 -16.285156 4.375 -18.484375 C 6.65625 -20.679688 9.390625 -21.78125 12.578125 -21.78125 C 15.929688 -21.78125 18.660156 -20.8125 20.765625 -18.875 C 22.867188 -16.9375 23.921875 -14.164062 23.921875 -10.5625 C 23.921875 -10.0625 23.910156 -9.726562 23.890625 -9.5625 Z M 8.75 -13.609375 L 16.78125 -13.609375 C 16.625 -14.710938 16.191406 -15.554688 15.484375 -16.140625 C 14.785156 -16.734375 13.882812 -17.03125 12.78125 -17.03125 C 11.570312 -17.03125 10.609375 -16.710938 9.890625 -16.078125 C 9.179688 -15.453125 8.800781 -14.628906 8.75 -13.609375 Z M 8.75 -13.609375 "/></g></g></g><g fill="#000000" fill-opacity="1"><g transform="translate(205.780443, 44.678948)"><g><path d="M 3.71875 -21.15625 L 3.71875 -29.046875 L 11.015625 -29.046875 L 11.015625 -21.15625 L 15.46875 -21.15625 L 15.46875 -15.59375 L 11.015625 -15.59375 L 11.015625 -8.875 C 11.015625 -6.914062 11.5625 -5.9375 12.65625 -5.9375 C 12.9375 -5.9375 13.226562 -5.988281 13.53125 -6.09375 C 13.832031 -6.207031 14.066406 -6.320312 14.234375 -6.4375 L 14.484375 -6.59375 L 16.296875 -0.703125 C 14.722656 0.179688 12.9375 0.625 10.9375 0.625 C 9.5625 0.625 8.378906 0.382812 7.390625 -0.09375 C 6.398438 -0.582031 5.648438 -1.234375 5.140625 -2.046875 C 4.628906 -2.859375 4.265625 -3.707031 4.046875 -4.59375 C 3.828125 -5.488281 3.71875 -6.445312 3.71875 -7.46875 L 3.71875 -15.59375 L 0.65625 -15.59375 L 0.65625 -21.15625 Z M 3.71875 -21.15625 "/></g></g></g></svg>